<?xml version="1.0" encoding="utf-8"?>
<!-- Generator: Adobe Illustrator 16.0.0, SVG Export Plug-In . SVG Version: 6.00 Build 0)  -->
<!DOCTYPE svg PUBLIC "-//W3C//DTD SVG 1.1//EN" "http://www.w3.org/Graphics/SVG/1.1/DTD/svg11.dtd">
<svg version="1.1" id="Layer_1" xmlns="http://www.w3.org/2000/svg" xmlns:xlink="http://www.w3.org/1999/xlink" x="0px" y="0px"
	 width="400px" height="400px" viewBox="0 0 400 400" enable-background="new 0 0 400 400" xml:space="preserve">
<linearGradient id="SVGID_1_" gradientUnits="userSpaceOnUse" x1="-263.3184" y1="512.5713" x2="65.4199" y2="512.5713" gradientTransform="matrix(4.489659e-011 -1 1 4.489659e-011 -312.5713 106.2002)">
	<stop  offset="0" style="stop-color:#41837E"/>
	<stop  offset="0.5169" style="stop-color:#007169"/>
	<stop  offset="1" style="stop-color:#00473D"/>
</linearGradient>
<path fill="url(#SVGID_1_)" d="M200.001,40.78c90.786,0,164.381,73.591,164.381,164.37c0,90.777-73.596,164.368-164.381,164.368
	c-90.788,0-164.384-73.591-164.384-164.368C35.617,114.371,109.213,40.78,200.001,40.78z"/>
<path fill="#FFFFFF" d="M219.974,269.968c0.013-5.689-2.194-11.33-5.977-15.009c-7.189-6.998-18.432-6.414-25.113,1.242
	c-3.271,3.748-4.842,8.938-4.825,13.641l0,0c-0.017,4.696,1.555,9.148,4.825,12.895c6.681,7.654,17.923,8.237,25.113,1.243
	C217.779,280.297,219.986,275.661,219.974,269.968"/>
<path fill="#FFFFFF" stroke="#FFFFFF" stroke-miterlimit="10" d="M157.357,232.536c6.513-6.478,13.458-12.054,21.556-16.19
	c12.599-6.441,25.599-7.984,39.058-3.425c8.405,2.847,15.715,7.709,22.338,13.767c2.363,2.16,4.596,4.477,6.938,6.771
	c-5.926,5.974-11.689,11.779-17.535,17.667c-0.258-0.327-0.408-0.547-0.589-0.743c-3.543-3.776-7.333-7.229-11.675-9.967
	c-7.244-4.574-14.877-6.117-23.075-3.346c-5.129,1.735-9.686,4.583-13.903,8.045c-2.422,1.986-4.72,4.141-7.118,6.258
	c-5.486-6.025-10.99-12.069-16.563-18.192C157.01,232.928,157.227,232.661,157.357,232.536z"/>
<path fill="#FFFFFF" stroke="#FFFFFF" stroke-miterlimit="10" d="M124.384,204.371c0.359-0.26,0.622-0.412,0.843-0.611
	c5.04-4.546,9.927-9.297,15.145-13.603c10.63-8.766,22.212-15.801,35.083-20.32c12.585-4.415,25.452-5.854,38.595-3.819
	c11.185,1.727,21.595,5.843,31.403,11.709c9.789,5.853,18.535,13.146,26.652,21.316c1.867,1.881,3.703,3.81,5.604,5.768
	c-5.924,5.968-11.686,11.773-17.547,17.674c-0.25-0.33-0.395-0.557-0.572-0.749c-7.615-8.269-15.857-15.72-25.355-21.528
	c-8.806-5.381-18.185-8.923-28.406-9.604c-8.27-0.55-16.285,0.867-24.079,3.788c-9.448,3.545-18.006,8.81-25.901,15.24
	c-5.042,4.107-9.831,8.554-14.869,12.965C135.591,216.682,130.072,210.619,124.384,204.371z"/>
<path fill="#FFFFFF" stroke="#FFFFFF" stroke-miterlimit="10" d="M206.172,119.727c1.416,0.137,2.832,0.299,4.248,0.415
	c17.395,1.394,33.525,7.098,48.734,15.901c17.162,9.937,31.973,23.041,45.549,37.784c0.299,0.321,0.652,0.59,0.979,0.883
	c0,0.077,0,0.156,0,0.232c-0.201,0.152-0.422,0.284-0.598,0.465c-5.201,5.233-10.395,10.473-15.592,15.706
	c-0.416,0.418-0.842,0.823-1.133,1.103c-4.826-4.76-9.453-9.563-14.318-14.08c-10.561-9.809-22.039-18.196-34.941-24.279
	c-10.33-4.871-21.107-7.911-32.426-8.571c-11.705-0.682-23.092,1.17-34.184,5.115c-12.818,4.555-24.5,11.409-35.507,19.61
	c-8.641,6.438-16.718,13.595-24.394,21.263c-0.493,0.491-1.012,0.955-1.551,1.465c-5.589-6.138-11.089-12.18-16.72-18.364
	c0.388-0.323,0.686-0.547,0.96-0.8c6.199-5.677,12.236-11.565,18.629-16.99c13.372-11.348,27.868-20.798,43.871-27.52
	c11.397-4.788,23.172-7.947,35.444-8.907c1.531-0.119,3.057-0.287,4.585-0.43C200.596,119.727,203.385,119.727,206.172,119.727z"/>
</svg>
