<?xml version="1.0" encoding="UTF-8" standalone="no"?>
<svg
   xmlns:dc="http://purl.org/dc/elements/1.1/"
   xmlns:cc="http://creativecommons.org/ns#"
   xmlns:rdf="http://www.w3.org/1999/02/22-rdf-syntax-ns#"
   xmlns:svg="http://www.w3.org/2000/svg"
   xmlns="http://www.w3.org/2000/svg"
   xmlns:sodipodi="http://sodipodi.sourceforge.net/DTD/sodipodi-0.dtd"
   xmlns:inkscape="http://www.inkscape.org/namespaces/inkscape"
   version="1.1"
   id="Layer_1"
   x="0px"
   y="0px"
   width="180"
   height="180"
   viewBox="0 0 180 180"
   enable-background="new 0 0 400 400"
   xml:space="preserve"
   sodipodi:docname="wifi-5 (copia 1).svg"
   inkscape:version="1.0.2 (e86c870879, 2021-01-15)"><metadata
   id="metadata24"><rdf:RDF><cc:Work
       rdf:about=""><dc:format>image/svg+xml</dc:format><dc:type
         rdf:resource="http://purl.org/dc/dcmitype/StillImage" /><dc:title></dc:title></cc:Work></rdf:RDF></metadata><defs
   id="defs22" /><sodipodi:namedview
   pagecolor="#ffffff"
   bordercolor="#666666"
   borderopacity="1"
   objecttolerance="10"
   gridtolerance="10"
   guidetolerance="10"
   inkscape:pageopacity="0"
   inkscape:pageshadow="2"
   inkscape:window-width="1360"
   inkscape:window-height="702"
   id="namedview20"
   showgrid="false"
   fit-margin-left="20"
   fit-margin-top="20"
   fit-margin-right="20"
   fit-margin-bottom="20"
   inkscape:zoom="1.2225"
   inkscape:cx="200"
   inkscape:cy="101.84049"
   inkscape:window-x="0"
   inkscape:window-y="0"
   inkscape:window-maximized="1"
   inkscape:current-layer="Layer_1" />
<linearGradient
   id="SVGID_1_"
   gradientUnits="userSpaceOnUse"
   x1="-263.31839"
   y1="512.57129"
   x2="65.419899"
   y2="512.57129"
   gradientTransform="matrix(0,-0.42587108,0.42583611,0,-128.27115,47.860574)">
	<stop
   offset="0"
   style="stop-color:#41837E"
   id="stop2" />
	<stop
   offset="0.5169"
   style="stop-color:#007169"
   id="stop4" />
	<stop
   offset="1"
   style="stop-color:#00473D"
   id="stop6" />
</linearGradient>
<path
   fill="url(#SVGID_1_)"
   d="M 90.00064,20 C 128.66059,20 160,51.340278 160,90.00042 160,128.65972 128.66017,160 90.00064,160 51.339834,160 20,128.65972 20,90.00042 20,51.340278 51.339834,20 90.00064,20 Z"
   id="path9"
   style="fill:url(#SVGID_1_);stroke-width:0.425853" />
<path
   fill="#ffffff"
   d="m 98.50586,117.60455 c 0.006,-2.4228 -0.93427,-4.82513 -2.54522,-6.39191 -3.06133,-2.98025 -7.84901,-2.73154 -10.69402,0.52892 -1.392908,1.59618 -2.061897,3.80643 -2.054658,5.80931 v 0 c -0.0072,1.9999 0.662176,3.89587 2.054658,5.49162 2.84501,3.25962 7.63226,3.5079 10.69402,0.52936 1.61051,-1.5685 2.55033,-3.54283 2.54522,-5.9673"
   id="path11"
   style="stroke-width:0.425853" />
<path
   fill="#ffffff"
   stroke="#ffffff"
   stroke-miterlimit="10"
   d="m 71.841286,101.66333 c 2.773472,-2.75879 5.730903,-5.13345 9.179324,-6.89485 5.36511,-2.74304 10.90098,-3.40015 16.6323,-1.45861 3.57916,1.21246 6.69203,3.28305 9.51234,5.86297 1.00625,0.91988 1.95714,1.90662 2.95444,2.88356 -2.5235,2.54417 -4.97759,5.01634 -7.46703,7.52387 -0.1099,-0.13924 -0.17375,-0.23295 -0.25082,-0.31642 -1.50873,-1.60809 -3.12265,-3.07862 -4.97163,-4.24466 -3.08476,-1.94793 -6.33517,-2.60505 -9.82617,-1.42496 -2.18412,0.73889 -4.124652,1.95177 -5.920404,3.42613 -1.031374,0.84579 -2.009946,1.76353 -3.0311,2.66511 -2.336137,-2.56588 -4.67994,-5.13984 -7.053125,-7.74745 0.09412,-0.1078 0.186518,-0.22145 0.241875,-0.27469 z"
   id="path13"
   style="stroke-width:0.425853" />
<path
   fill="#ffffff"
   stroke="#ffffff"
   stroke-miterlimit="10"
   d="m 57.800194,89.66867 c 0.152874,-0.11072 0.264869,-0.17546 0.358978,-0.2602 2.146214,-1.93602 4.227276,-3.95933 6.449289,-5.79313 4.526637,-3.73319 9.458671,-6.729188 14.939607,-8.6537 5.359152,-1.88022 10.838382,-2.493048 16.435152,-1.626401 4.76297,0.735479 9.19592,2.488365 13.37253,4.986525 4.16851,2.492626 7.89286,5.598496 11.34938,9.077866 0.79503,0.80106 1.57686,1.62257 2.38638,2.45643 -2.52266,2.54159 -4.97631,5.01377 -7.47214,7.52684 -0.10652,-0.14054 -0.16821,-0.23721 -0.24358,-0.31898 -3.24275,-3.52152 -6.75249,-6.69469 -10.79708,-9.16815 -3.74991,-2.29161 -7.74383,-3.80005 -12.0963,-4.09006 -3.52166,-0.23423 -6.93474,0.36923 -10.253703,1.61319 -4.0233,1.50972 -7.667605,3.75193 -11.029581,6.49028 -2.147066,1.74906 -4.186394,3.64291 -6.331758,5.52141 -2.29483,-2.51902 -4.645019,-5.10107 -7.067174,-7.76192 z"
   id="path15"
   style="stroke-width:0.425853" />
<path
   fill="#ffffff"
   stroke="#ffffff"
   stroke-miterlimit="10"
   d="m 92.62848,53.621243 c 0.60298,0.05835 1.20596,0.127333 1.80895,0.176736 7.40742,0.593664 14.27615,3.022832 20.7527,6.771774 7.3082,4.231883 13.61526,9.812496 19.3964,16.091114 0.12738,0.136706 0.27765,0.251262 0.4169,0.376043 0,0.0328 0,0.06644 0,0.09881 -0.0856,0.06473 -0.17971,0.120949 -0.25465,0.198031 -2.21477,2.228579 -4.42656,4.460139 -6.63964,6.688719 -0.17714,0.17802 -0.35856,0.3505 -0.48247,0.46974 -2.05509,-2.02714 -4.02543,-4.0726 -6.09713,-5.996258 -4.49724,-4.177368 -9.38499,-7.749148 -14.87913,-10.339724 -4.39889,-2.074418 -8.98813,-3.369065 -13.80816,-3.650139 -4.98441,-0.290445 -9.833411,0.498268 -14.556785,2.17833 -5.458367,1.939843 -10.432986,4.858762 -15.120162,8.351331 -3.679651,2.741757 -7.119129,5.78971 -10.387847,9.05529 -0.209936,0.20911 -0.430945,0.40672 -0.660471,0.62391 -2.379999,-2.61399 -4.722097,-5.18712 -7.11998,-7.820699 0.165224,-0.137564 0.292124,-0.23295 0.408803,-0.340698 2.639758,-2.417669 5.210529,-4.925197 7.932901,-7.235549 5.69428,-4.832783 11.8672,-8.857265 18.681855,-11.71997 4.853254,-2.039071 9.867474,-3.384397 15.093336,-3.793232 0.65195,-0.05068 1.30178,-0.122228 1.95246,-0.183126 1.18765,-4.26e-4 2.37531,-4.26e-4 3.56212,-4.26e-4 z"
   id="path17"
   style="stroke-width:0.425853" />
</svg>
